<?xml version="1.0" encoding="utf-8"?>
<!-- Generator: Adobe Illustrator 25.0.1, SVG Export Plug-In . SVG Version: 6.00 Build 0)  -->
<svg version="1.1" id="图层_1" xmlns="http://www.w3.org/2000/svg" xmlns:xlink="http://www.w3.org/1999/xlink" x="0px" y="0px"
	 viewBox="0 0 555.32 210.64" style="enable-background:new 0 0 555.32 210.64;" xml:space="preserve">
<style type="text/css">
	.st0{fill:none;stroke:#9FA0A0;stroke-width:2;stroke-miterlimit:10;}
	.st1{fill:#898989;}
	.st2{font-family:'ArialMT';}
	.st3{font-size:20px;}
	.st4{fill:none;stroke:#9FA0A0;stroke-width:3;stroke-miterlimit:10;}
	.st5{fill:#9FA0A0;}
	.st6{fill:none;}
</style>
<rect x="32.43" y="16.93" class="st0" width="68.62" height="59.47"/>
<circle class="st0" cx="174.47" cy="52" r="37.36"/>
<polygon class="st0" points="83.62,111.11 36.13,111.11 12.38,152.24 36.13,193.37 83.62,193.37 107.37,152.24 "/>
<polygon class="st0" points="179.58,111.85 192.7,138.44 222.04,142.7 200.81,163.4 205.82,192.63 179.58,178.83 153.33,192.63 
	158.34,163.4 137.11,142.7 166.45,138.44 "/>
<rect x="352.07" y="19.8" class="st0" width="68.62" height="59.47"/>
<circle class="st0" cx="494.12" cy="54.87" r="37.36"/>
<polygon class="st0" points="403.27,113.98 355.77,113.98 332.03,155.11 355.77,196.24 403.27,196.24 427.01,155.11 "/>
<polygon class="st0" points="499.22,114.72 512.35,141.31 541.69,145.58 520.46,166.27 525.47,195.5 499.22,181.7 472.98,195.5 
	477.99,166.27 456.76,145.58 486.1,141.31 "/>
<text transform="matrix(1 0 0 1 337.2675 25.5155)" class="st1 st2 st3">A</text>
<text transform="matrix(1 0 0 1 450.7565 25.5155)" class="st1 st2 st3">B</text>
<text transform="matrix(1 0 0 1 337.2372 122.7209)" class="st1 st2 st3">C</text>
<text transform="matrix(1 0 0 1 450.7565 122.7211)" class="st1 st2 st3">D</text>
<g>
	<g>
		<line class="st4" x1="251.06" y1="97.87" x2="291.57" y2="97.87"/>
		<g>
			<polygon class="st5" points="308.51,97.87 284.63,107.63 290.3,97.87 284.63,88.12 			"/>
		</g>
	</g>
</g>
<rect class="st6" width="555.32" height="210.64"/>
</svg>
